<svg width="112" height="112" viewBox="0 0 112 112" fill="none" xmlns="http://www.w3.org/2000/svg">
<g clip-path="url(#clip0_91_272)">
<path d="M19.8333 0.0114746H92.1667C103.133 0.0114746 112 9.10363 112 20.3492V91.6508C112 102.896 103.133 111.989 92.1667 111.989H19.8333C8.86667 111.989 0 102.896 0 91.6508V20.3492C0 9.10363 8.86667 0.0114746 19.8333 0.0114746Z" fill="#001E36"/>
<path d="M25.2 78.5389V29.2978C25.2 28.9628 25.34 28.7714 25.6667 28.7714C26.46 28.7714 27.2067 28.7714 28.28 28.7235C29.4 28.6757 30.5667 28.6757 31.8267 28.6278C33.0867 28.58 34.44 28.58 35.8867 28.5321C37.3333 28.4843 38.7333 28.4843 40.1333 28.4843C43.96 28.4843 47.1333 28.9628 49.7467 29.9677C52.08 30.7812 54.2267 32.1211 56 33.8917C57.4933 35.423 58.66 37.2893 59.4067 39.347C60.1067 41.3568 60.48 43.4145 60.48 45.5679C60.48 49.6833 59.5467 53.0809 57.68 55.7607C55.8133 58.4405 53.2 60.4503 50.1667 61.5988C46.9933 62.7952 43.4933 63.2258 39.6667 63.2258C38.5467 63.2258 37.8 63.2258 37.3333 63.178C36.8667 63.1301 36.2133 63.1301 35.3267 63.1301V78.4911C35.3733 78.8261 35.14 79.1132 34.8133 79.161H25.76C25.3867 79.161 25.2 78.9696 25.2 78.5389ZM35.3733 38.0071V54.0858C36.0267 54.1337 36.6333 54.1815 37.1933 54.1815H39.6667C41.4867 54.1815 43.3067 53.8944 45.0333 53.3202C46.5267 52.8895 47.8333 51.9803 48.86 50.784C49.84 49.5876 50.3067 47.9606 50.3067 45.8551C50.3533 44.3716 49.98 42.8881 49.2333 41.5961C48.44 40.3519 47.32 39.3948 45.9667 38.8684C44.24 38.1506 42.3733 37.8635 40.46 37.9114C39.2467 37.9114 38.1733 37.9114 37.2867 37.9592C36.3533 37.9114 35.7 37.9592 35.3733 38.0071ZM89.6 51.1668C88.2 50.4011 86.7067 49.8747 85.12 49.5398C83.3933 49.1569 81.6667 48.9177 79.8933 48.9177C78.96 48.8698 77.98 49.0134 77.0933 49.2526C76.4867 49.3962 75.9733 49.7312 75.6467 50.2097C75.4133 50.5925 75.2733 51.0711 75.2733 51.5018C75.2733 51.9324 75.46 52.3631 75.74 52.7459C76.16 53.2723 76.72 53.703 77.3267 54.038C78.4 54.6122 79.52 55.1386 80.64 55.6171C83.16 56.4785 85.5867 57.6748 87.8267 59.1105C89.3667 60.1154 90.6267 61.4553 91.5133 63.0823C92.26 64.6136 92.6333 66.2885 92.5867 68.0112C92.6333 70.2603 91.98 72.5094 90.7667 74.3757C89.46 76.2898 87.64 77.7733 85.54 78.6347C83.2533 79.6396 80.4533 80.166 77.0933 80.166C74.9467 80.166 72.8467 79.9745 70.7467 79.5439C69.1133 79.2567 67.48 78.7304 65.9867 78.0126C65.66 77.8211 65.4267 77.4862 65.4733 77.1033V68.7768C65.4733 68.6333 65.52 68.4419 65.66 68.3462C65.8 68.2505 65.94 68.2983 66.08 68.394C67.9 69.4946 69.8133 70.2603 71.8667 70.7388C73.64 71.2174 75.5067 71.4566 77.3733 71.4566C79.1467 71.4566 80.4067 71.2174 81.2467 70.7867C81.9933 70.4517 82.5067 69.6382 82.5067 68.7768C82.5067 68.1069 82.1333 67.4848 81.3867 66.8627C80.64 66.2406 79.1 65.5228 76.8133 64.6136C74.4333 63.7522 72.24 62.6038 70.1867 61.1681C68.74 60.1154 67.5267 58.7276 66.64 57.1006C65.8933 55.5693 65.52 53.8944 65.5667 52.2196C65.5667 50.1619 66.1267 48.1999 67.1533 46.4293C68.32 44.5152 70.0467 42.9838 72.0533 42.0268C74.2467 40.8783 77 40.3519 80.3133 40.3519C82.2267 40.3519 84.1867 40.4955 86.1 40.7826C87.5 40.974 88.8533 41.3568 90.1133 41.8832C90.3 41.9311 90.4867 42.1225 90.58 42.3139C90.6267 42.5053 90.6733 42.6967 90.6733 42.8881V50.6882C90.6733 50.8797 90.58 51.0711 90.44 51.1668C90.02 51.2625 89.7867 51.2625 89.6 51.1668Z" fill="#31A8FF"/>
</g>
<defs>
<clipPath id="clip0_91_272">
<rect width="112" height="112" rx="8" fill="white"/>
</clipPath>
</defs>
</svg>
