<svg width="112" height="112" viewBox="0 0 112 112" fill="none" xmlns="http://www.w3.org/2000/svg">
<g clip-path="url(#clip0_91_268)">
<path d="M19.8333 9.02737e-06H92.1667C94.7719 -0.00250939 97.3521 0.52193 99.7595 1.54331C102.167 2.5647 104.354 4.06297 106.196 5.95239C108.039 7.84181 109.499 10.0853 110.495 12.5544C111.491 15.0235 112.002 17.6698 112 20.3419V91.6581C112.002 94.3302 111.491 96.9765 110.495 99.4456C109.499 101.915 108.039 104.158 106.196 106.048C104.354 107.937 102.167 109.435 99.7595 110.457C97.3521 111.478 94.7719 112.003 92.1667 112H19.8333C17.2281 112.003 14.6479 111.478 12.2406 110.457C9.83315 109.435 7.64577 107.937 5.80358 106.048C3.9614 104.158 2.50058 101.915 1.50473 99.4456C0.508882 96.9765 -0.00244666 94.3302 8.80169e-06 91.6581V20.3419C-0.00244666 17.6698 0.508882 15.0235 1.50473 12.5544C2.50058 10.0853 3.9614 7.84181 5.80358 5.95239C7.64577 4.06297 9.83315 2.5647 12.2406 1.54331C14.6479 0.52193 17.2281 -0.00250939 19.8333 9.02737e-06Z" fill="#330000"/>
<path d="M54.2733 67.2H36.9133L33.3667 78.4478C33.327 78.6529 33.2141 78.8353 33.05 78.9593C32.886 79.0833 32.6827 79.1398 32.48 79.1179H23.7067C23.1933 79.1179 23.0533 78.8308 23.1933 78.2564L38.22 33.8872C38.36 33.4085 38.5 32.882 38.6867 32.3077C38.8745 31.2819 38.9682 30.2403 38.9667 29.1966C38.9527 29.0767 38.9834 28.9558 39.0526 28.8582C39.1219 28.7606 39.2245 28.6934 39.34 28.6701H51.4267C51.8 28.6701 51.9867 28.8137 52.0333 29.053L69.0667 78.3521C69.2067 78.8786 69.0667 79.1179 68.6 79.1179H58.8467C58.6817 79.1342 58.5164 79.0904 58.3799 78.9941C58.2433 78.8978 58.1442 78.7552 58.1 78.5914L54.2733 67.2ZM39.62 57.4837H51.4733C51.1933 56.4786 50.82 55.282 50.4 54.0376C49.98 52.7931 49.56 51.3573 49.14 49.9214C48.72 48.4855 48.2533 47.0017 47.7867 45.5179C47.32 44.0342 46.9 42.6461 46.5267 41.2581C46.1533 39.8701 45.8267 38.6735 45.5 37.5248H45.4067C44.9873 39.6109 44.4576 41.672 43.82 43.6991C43.12 45.9966 42.42 48.3897 41.6733 50.7829C41.02 53.2239 40.32 55.4735 39.62 57.4837ZM79.24 36.8547C78.474 36.8719 77.7123 36.7326 76.9993 36.445C76.2862 36.1574 75.6361 35.7272 75.0867 35.1795C74.0175 33.9805 73.448 32.4 73.5 30.7761C73.4724 29.9848 73.6078 29.1965 73.8973 28.4625C74.1868 27.7285 74.6238 27.0653 75.18 26.5162C76.3017 25.4288 77.79 24.8286 79.3333 24.841C81.1533 24.841 82.5533 25.4154 83.58 26.5162C84.6138 27.6768 85.1662 29.2048 85.12 30.7761C85.1485 31.5847 85.0186 32.3911 84.7381 33.1474C84.4575 33.9037 84.032 34.5947 83.4867 35.1795C82.9368 35.7539 82.2732 36.2007 81.5406 36.4897C80.808 36.7787 80.0235 36.9032 79.24 36.8547ZM74.0133 78.4V41.5453C74.0133 41.0667 74.2 40.8752 74.62 40.8752H83.86C84.28 40.8752 84.4667 41.1145 84.4667 41.5453V78.4C84.4667 78.9265 84.28 79.1658 83.86 79.1658H74.7133C74.6153 79.1741 74.5166 79.1596 74.4248 79.1233C74.333 79.087 74.2503 79.0299 74.183 78.9563C74.1157 78.8826 74.0655 78.7944 74.0361 78.698C74.0067 78.6017 73.9989 78.4998 74.0133 78.4Z" fill="#FF9A00"/>
</g>
<defs>
<clipPath id="clip0_91_268">
<rect width="112" height="112" rx="8" fill="white"/>
</clipPath>
</defs>
</svg>
