<svg width="112" height="112" viewBox="0 0 112 112" fill="none" xmlns="http://www.w3.org/2000/svg">
<path d="M56 56C56 51.8744 57.7209 47.9178 60.7839 45.0006C63.847 42.0834 68.0015 40.4445 72.3333 40.4445C76.6652 40.4445 80.8197 42.0834 83.8828 45.0006C86.9458 47.9178 88.6667 51.8744 88.6667 56C88.6667 60.1256 86.9458 64.0822 83.8828 66.9995C80.8197 69.9167 76.6652 71.5556 72.3333 71.5556C68.0015 71.5556 63.847 69.9167 60.7839 66.9995C57.7209 64.0822 56 60.1256 56 56Z" fill="#1ABCFE"/>
<path d="M23.3333 87.1111C23.3333 82.9856 25.0542 79.0287 28.1173 76.1114C31.1804 73.1944 35.3348 71.5555 39.6667 71.5555H56V87.1111C56 91.2366 54.2792 95.1935 51.2161 98.1108C48.153 101.027 43.9986 102.667 39.6667 102.667C35.3348 102.667 31.1804 101.027 28.1173 98.1108C25.0542 95.1935 23.3333 91.2366 23.3333 87.1111Z" fill="#0ACF83"/>
<path d="M56 9.33337V40.4445H72.3333C76.6652 40.4445 80.8197 38.8056 83.8828 35.8884C86.9458 32.9711 88.6667 29.0145 88.6667 24.8889C88.6667 20.7633 86.9458 16.8067 83.8828 13.8895C80.8197 10.9723 76.6652 9.33337 72.3333 9.33337H56Z" fill="#FF7262"/>
<path d="M23.3333 24.8889C23.3333 29.0145 25.0542 32.9711 28.1173 35.8884C31.1804 38.8056 35.3348 40.4445 39.6667 40.4445H56V9.33337H39.6667C35.3348 9.33337 31.1804 10.9723 28.1173 13.8895C25.0542 16.8067 23.3333 20.7633 23.3333 24.8889Z" fill="#F24E1E"/>
<path d="M23.3333 56C23.3333 60.1256 25.0542 64.0822 28.1173 66.9995C31.1804 69.9167 35.3348 71.5556 39.6667 71.5556H56V40.4445H39.6667C35.3348 40.4445 31.1804 42.0834 28.1173 45.0006C25.0542 47.9178 23.3333 51.8744 23.3333 56Z" fill="#A259FF"/>
</svg>
