<svg width="112" height="112" viewBox="0 0 112 112" fill="none" xmlns="http://www.w3.org/2000/svg">
<path d="M21.6447 93.3367L14 9.33337L98 9.33337L90.3451 93.3234L55.949 102.667L21.6447 93.3367Z" fill="#E44F26"/>
<path d="M56.0024 95.5245L83.7983 87.9745L90.3373 16.2012L56.0024 16.2012L56.0024 95.5245Z" fill="#F1662A"/>
<path d="M56.005 47.3541L42.0901 47.3541L41.1307 36.8041L56.005 36.8041L56.005 26.5007L29.6381 26.5007L29.8898 29.2674L32.4721 57.6574L56.005 57.6574L56.005 47.3541ZM56.005 74.1107L55.9574 74.1241L44.2471 71.0274L43.4986 62.8107L32.9416 62.8107L34.4147 78.9841L55.9574 84.8441L56.005 84.8307L56.005 74.1107Z" fill="#EBEBEB"/>
<path d="M55.9559 47.3541L55.9559 57.6574L68.9047 57.6574L67.6867 71.0207L55.9559 74.1207L55.9559 84.8407L77.5156 78.9841L77.6721 77.2441L80.1421 50.1207L80.4006 47.3541L55.9559 47.3541ZM55.9559 26.5007L55.9559 36.8041L81.3567 36.8041L81.5676 34.4907L82.0473 29.2674L82.2991 26.5007L55.9559 26.5007Z" fill="white"/>
</svg>
