<svg width="112" height="112" viewBox="0 0 112 112" fill="none" xmlns="http://www.w3.org/2000/svg">
<path d="M9.33337 9.33325L102.667 9.33325L102.667 102.667L9.33337 102.667L9.33337 9.33325Z" fill="#F7DF1E"/>
<path d="M33.8748 87.3285L41.0169 83.006C42.3951 85.4491 43.6485 87.5163 46.6552 87.5163C49.5373 87.5163 51.3547 86.389 51.3547 82.0038L51.3547 52.1816L60.1255 52.1816L60.1255 82.1277C60.1255 91.2121 54.8004 95.3472 47.0311 95.3472C40.0147 95.3472 35.9419 91.7134 33.8744 87.3278M64.8895 86.3886L72.0309 82.2539C73.9111 85.324 76.3545 87.5794 80.677 87.5794C84.3116 87.5794 86.6289 85.7623 86.6289 83.2561C86.6289 80.249 84.2481 79.1837 80.2385 77.4301L78.0462 76.4895C71.7181 73.7963 67.5207 70.413 67.5207 63.2708C67.5207 56.6922 72.5326 51.6799 80.3642 51.6799C85.9402 51.6799 89.9499 53.6224 92.8315 58.6971L86.0021 63.083C84.4982 60.3891 82.87 59.3241 80.3639 59.3241C77.795 59.3241 76.1661 60.9531 76.1661 63.083C76.1661 65.7142 77.795 66.7799 81.5539 68.4088L83.7465 69.3484C91.2022 72.5439 95.3996 75.8015 95.3996 83.1311C95.3996 91.0258 89.1974 95.3483 80.8648 95.3483C72.7204 95.3483 67.4576 91.464 64.8891 86.389" fill="black"/>
</svg>
