<svg width="112" height="112" viewBox="0 0 112 112" fill="none" xmlns="http://www.w3.org/2000/svg">
<path d="M89.6918 63.6073C86.761 63.6112 83.8696 64.282 81.236 65.5692C80.4114 64.1994 79.7746 62.7248 79.3428 61.185C79.0947 59.9781 79.0374 58.7396 79.1728 57.5149C79.4577 56.1672 79.8273 54.8388 80.2794 53.5377C80.2627 53.3676 80.0761 52.5635 78.1996 52.5368C76.3231 52.5101 74.7066 52.8938 74.5333 53.3909C74.2074 54.299 73.9457 55.2288 73.7501 56.1736C72.197 60.0089 70.2854 63.6888 68.0406 67.164C66.783 65.1001 66.2657 62.6686 66.5741 60.2708C66.859 58.9231 67.2286 57.5948 67.6807 56.2937C67.664 56.1235 67.4774 55.3194 65.6009 55.2927C63.7244 55.266 62.1079 55.6497 61.9346 56.1469C61.7613 56.644 61.5413 57.8151 61.1513 58.9295C60.7614 60.0439 56.2085 70.227 55.0153 72.8528C54.402 74.1874 53.8721 75.2751 53.4988 76.0091C53.4811 76.0568 53.4588 76.1026 53.4321 76.1459L52.9222 77.1202L52.9222 77.1369C52.6655 77.5973 52.3922 78.0244 52.2556 78.0244C52.0172 77.0711 52.0287 76.0725 52.2889 75.125C52.9555 71.5916 54.5887 66.0997 54.572 65.9095C54.572 65.8061 54.8786 64.8518 53.5155 64.358C53.1993 64.2074 52.8443 64.1586 52.4993 64.2184C52.1542 64.2781 51.8362 64.4435 51.589 64.6917C51.469 64.6917 51.3857 64.982 51.3857 64.982C51.3857 64.982 52.8689 58.8061 48.556 58.8061C46.8764 59.1443 45.2814 59.8153 43.8648 60.7796C42.4481 61.744 41.2384 62.9822 40.3068 64.4214C39.1469 65.052 36.6772 66.4 34.0341 67.8514C33.0342 68.4152 31.9877 68.9791 31.0178 69.5196C30.9511 69.4529 30.8811 69.3661 30.8144 69.2994C25.565 63.7007 15.916 59.7503 16.3326 52.2598C16.4859 49.5306 17.4225 42.3638 34.8607 33.6588C49.2126 26.5787 60.6347 28.5406 62.6112 32.8914C65.4409 39.104 56.4918 50.6383 41.6633 52.3099C40.0229 52.6431 38.3286 52.6029 36.7057 52.1922C35.0828 51.7816 33.5729 51.0111 32.2876 49.9376C31.5044 49.0835 31.3844 49.0334 31.0944 49.2036C30.6178 49.4605 30.9244 50.2279 31.0944 50.6717C31.6601 51.6965 32.4252 52.5974 33.3446 53.3212C34.264 54.045 35.319 54.5769 36.4472 54.8857C42.2807 56.1476 48.3628 55.5442 53.8354 53.1607C62.8345 49.6807 69.8338 40.0048 67.7807 31.9005C65.7175 23.676 52.0823 20.9634 39.1769 25.5611C31.0936 28.2839 23.6246 32.5728 17.1958 38.1831C10.0866 44.8394 8.96334 50.6216 9.4233 53.0473C11.0898 61.6488 22.9252 67.2441 27.6614 71.3981C27.4474 71.5199 27.2319 71.6389 27.0148 71.7551C24.6451 72.9329 15.6127 77.6607 13.3496 82.6588C10.7932 88.3309 13.7595 92.3847 15.7193 92.9319C18.6724 93.6395 21.7725 93.4065 24.5868 92.2652C27.4011 91.1239 29.7892 89.1314 31.4177 86.5659C32.8044 84.4379 33.6568 82.0059 33.9023 79.4771C34.1478 76.9482 33.7791 74.3975 32.8276 72.042C32.8115 72.0039 32.7889 71.9689 32.7609 71.9386L34.6174 70.8476C35.7454 70.18 36.8878 69.537 38.0437 68.919C37.3498 70.9225 36.9425 73.014 36.8338 75.1316C36.5982 78.3773 37.5905 81.593 39.6135 84.1402C39.9214 84.4055 40.2787 84.607 40.6649 84.733C41.0511 84.859 41.4585 84.907 41.8633 84.8742C43.8631 84.8742 44.7797 83.206 45.7829 81.2241C47.0095 78.8018 48.116 75.9858 48.116 75.9858C48.116 75.9858 46.7361 83.5964 50.4858 83.5964C51.849 83.5964 53.2288 81.8213 53.8454 80.9271L53.8454 80.9438L53.9487 80.7737L54.1687 80.4167L54.1687 80.3833C54.7153 79.4291 55.9419 77.2603 57.765 73.6602C60.1181 69.0191 62.3845 63.2169 62.3845 63.2169C62.6032 64.4921 62.9049 65.7515 63.2878 66.9872C63.8368 68.4851 64.4859 69.9442 65.2309 71.3547C64.6843 72.1221 64.3443 72.5492 64.3443 72.5492L64.361 72.5659C63.9177 73.1464 63.4411 73.777 62.9112 74.3909C61.3345 76.1262 59.8715 77.9618 58.5316 79.8862C58.3325 80.2094 58.2641 80.5965 58.3403 80.9684C58.4164 81.3404 58.6315 81.6693 58.9416 81.8881C59.6432 82.2535 60.4429 82.3856 61.2247 82.2651C62.4027 82.1985 63.5611 81.9334 64.651 81.481C65.7043 81.11 66.6979 80.5873 67.6007 79.9295C68.5314 79.2841 69.2805 78.4098 69.7761 77.3907C70.2716 76.3717 70.497 75.2421 70.4304 74.1107C70.3256 72.6854 69.9619 71.2913 69.3572 69.9967C69.5272 69.7565 69.6905 69.5196 69.8505 69.2794C71.7454 66.448 73.4533 63.4955 74.9633 60.441C75.1819 61.7161 75.4836 62.9755 75.8665 64.2112C76.3193 65.5056 76.8766 66.761 77.533 67.9648C75.353 69.6438 73.636 71.8507 72.5435 74.3776C71.4703 77.4839 72.3035 78.8819 73.8767 79.2055C74.7375 79.2649 75.5983 79.0884 76.3665 78.695C77.4959 78.3234 78.5599 77.7762 79.5195 77.0735C80.5312 76.4757 81.3786 75.6356 81.9854 74.6286C82.5923 73.6216 82.9395 72.4793 82.9958 71.3047C82.9201 70.1321 82.6556 68.9795 82.2125 67.8914C85.0892 66.7664 88.2083 66.4077 91.2649 66.8504C99.3774 67.8047 100.981 72.8728 100.674 75.0082C100.53 75.7652 100.226 76.4826 99.7823 77.1122C99.3385 77.7418 98.7652 78.269 98.1009 78.6583C97.5376 79.0153 97.351 79.1354 97.401 79.3924C97.4676 79.7694 97.7343 79.7494 98.2176 79.6826C99.4402 79.3022 100.519 78.5597 101.312 77.5531C102.104 76.5464 102.573 75.3229 102.657 74.0439C102.914 69.0392 98.1409 63.5506 89.7018 63.6006L89.6918 63.6073ZM27.0982 84.7208C24.4051 87.6569 20.6555 88.7646 19.0356 87.8271C17.2958 86.8261 17.9791 82.4886 21.2854 79.379C23.2467 77.6116 25.3666 76.029 27.6181 74.6512C28.0114 74.4109 28.5913 74.0706 29.2846 73.6502L29.4712 73.5468L29.8812 73.2899C30.4719 75.2711 30.5255 77.3739 30.0364 79.3827C29.5473 81.3914 28.5332 83.2338 27.0982 84.7208ZM46.6995 71.3747C45.7629 73.6602 43.8031 79.5158 42.6099 79.1888C41.5867 78.9152 40.9434 74.4777 42.4066 70.0935C43.1454 67.983 44.2215 66.0065 45.5929 64.2413C47.0595 62.603 48.6793 62.0558 49.0692 62.7231C48.7135 65.7089 47.9148 68.6249 46.6995 71.3747ZM62.8745 79.1221C62.4812 79.3256 62.1079 79.4558 61.9379 79.3623C61.8179 79.2956 62.1079 79.0287 62.1079 79.0287C62.1079 79.0287 64.1377 76.8433 64.9376 75.8557C65.3976 75.2751 65.9375 74.5945 66.5241 73.8237L66.5241 74.0439C66.5241 76.6531 64.0011 78.4114 62.8778 79.1288L62.8745 79.1221ZM75.3532 76.2727C75.0633 76.0692 75.1132 75.3852 76.0865 73.2532C76.7632 71.8839 77.7086 70.6652 78.8662 69.6698C79.0437 70.1748 79.136 70.7059 79.1395 71.2413C79.1526 72.3808 78.7887 73.4927 78.1044 74.4034C77.42 75.3142 76.4539 75.9726 75.3566 76.2761L75.3532 76.2727Z" fill="#CD6799"/>
</svg>
