<svg width="112" height="113" viewBox="0 0 112 113" fill="none" xmlns="http://www.w3.org/2000/svg">
<path d="M92.167 112.5L19.833 112.5C8.86593 112.5 4.4982e-06 103.407 4.00652e-06 92.1585L8.89155e-07 20.8415C3.97479e-07 9.59325 8.86592 0.5 19.833 0.499999L92.167 0.499996C103.134 0.499995 112 9.59325 112 20.8415L112 92.1585C112 103.407 103.134 112.5 92.167 112.5Z" fill="#FF26BE"/>
<path d="M90.3937 107.712L21.6078 107.712C12.276 107.712 4.66895 99.9102 4.66895 90.339L4.66895 22.6612C4.66895 13.0901 12.276 5.28796 21.6078 5.28796L90.3489 5.28796C99.7301 5.28796 107.288 13.0901 107.288 22.6612L107.288 90.2931C107.333 99.9102 99.7256 107.712 90.3937 107.712Z" fill="#2E001F"/>
<path d="M44.2837 52.9091L57.3518 78.6588C57.5848 79.0401 57.4459 79.4261 57.0696 79.4261L48.9473 79.4261C48.4321 79.4261 48.1992 79.2837 47.9662 78.8058C44.9781 72.4879 41.9451 66.1699 38.8181 59.3741L38.724 59.3741C35.924 65.7885 32.8417 72.5384 29.8581 78.8563C29.6251 79.2377 29.3921 79.3848 29.0158 79.3848L21.3237 79.3848C20.8577 79.3848 20.8085 79.0034 21.0459 78.7139L33.8318 53.727L21.467 28.4552C21.1848 28.0738 21.467 27.7844 21.7448 27.7844L29.7729 27.7844C30.2389 27.7844 30.427 27.8808 30.6107 28.3128C33.5496 34.6307 36.5377 41.1416 39.3377 47.5055L39.4318 47.5055C42.1377 41.1876 45.1259 34.6307 48.02 28.3587C48.2529 27.9773 48.3918 27.7384 48.8622 27.7384L56.3752 27.7384C56.747 27.7384 56.8904 28.0279 56.6574 28.4093L44.2837 52.9091ZM59.6411 60.7112C59.6411 49.5594 66.8763 40.8476 78.3541 40.8476C79.3352 40.8476 79.8459 40.8476 80.7822 40.9441L80.7822 28.2622C80.7822 27.9727 81.0152 27.7843 81.2481 27.7843L88.6222 27.7843C88.9941 27.7843 89.0882 27.9268 89.0882 28.1657L89.0882 72.1065C89.0882 73.3976 89.0882 75.0242 89.3211 76.7978C89.3211 77.0873 89.227 77.1792 88.9493 77.3263C85.0293 79.2423 80.9211 80.1016 77.0011 80.1016C66.8718 80.1429 59.6366 73.7331 59.6411 60.7112ZM80.7777 48.4613C80.1237 48.1718 79.1918 47.9834 78.0718 47.9834C72.1896 47.9834 68.0859 52.6242 68.0859 60.3344C68.0859 69.1428 72.2882 72.6854 77.5611 72.6854C78.6811 72.6854 79.8952 72.543 80.7822 72.157L80.7822 48.4613L80.7777 48.4613Z" fill="#FFD9F2"/>
</svg>
